<?xml version="1.0" encoding="utf-8"?>
<!-- Generator: Adobe Illustrator 22.0.1, SVG Export Plug-In . SVG Version: 6.00 Build 0)  -->
<svg version="1.1" id="Layer_1" xmlns="http://www.w3.org/2000/svg" xmlns:xlink="http://www.w3.org/1999/xlink" x="0px" y="0px"
	 viewBox="0 0 48 48" style="enable-background:new 0 0 48 48;" xml:space="preserve">
<style type="text/css">
	.st0{fill:none;stroke:#753D5D;stroke-linecap:round;stroke-linejoin:round;stroke-miterlimit:10;}
	.st1{fill:#753D5D;}
</style>
<g>
	<path class="st0" d="M30.1,1.7c-9.1,0-16.6,7.4-16.6,16.6s7.4,16.6,16.6,16.6s16.6-7.4,16.6-16.6S39.2,1.7,30.1,1.7L30.1,1.7z"/>
</g>
<polygon class="st0" points="25.5,25.2 22.7,16.6 30.1,11.2 37.5,16.6 34.6,25.2 "/>
<polyline class="st0" points="36.4,3 30.1,5.6 23.8,3 "/>
<polyline class="st0" points="17.6,7.5 18.2,14.3 13.7,19.5 "/>
<polyline class="st0" points="16.1,26.9 22.7,28.4 26.2,34.2 "/>
<polyline class="st0" points="34,34.2 37.5,28.4 44.1,26.8 "/>
<polyline class="st0" points="46.5,19.5 42,14.3 42.6,7.5 "/>
<line class="st0" x1="30.1" y1="5.6" x2="30.1" y2="11.2"/>
<line class="st0" x1="37.5" y1="16.8" x2="42" y2="14.3"/>
<line class="st0" x1="34.6" y1="25.2" x2="37.5" y2="28.4"/>
<line class="st0" x1="25.5" y1="25.2" x2="22.7" y2="28.4"/>
<line class="st0" x1="18.2" y1="14.3" x2="22.7" y2="16.6"/>
<g id="Page-1-Copy">
	<g id="icon-49-soccer-shoe">
		<path id="soccer-shoe" class="st1" d="M19.3,35.9l-0.6-0.8l-0.7,0.5c-0.1-0.1-0.2-0.3-0.2-0.4l0.7-0.5L18,33.9l-0.7,0.5
			c-0.6-0.9-1.4-1.6-2.5-2c-1.4-0.5-1.6,1.4-4.4,0.3c-2.7-1.1-1.8-2.8-3.8-3.6c-2.1-0.8-5.1,7.5-5.1,7.5c-0.4,1,0.1,2.1,1.1,2.5
			l0.9,0.4l-0.4,0.9l0.9,0.4l0.4-0.9l1.8,0.7l-0.4,0.9l0.9,0.4l0.4-0.9L9,41.7l-0.4,0.9l0.9,0.4L9.9,42l1.8,0.7l-0.4,0.9l0.9,0.4
			l0.4-0.9l1.8,0.7l-0.4,0.9l0.9,0.4l0.4-0.9l1.8,0.7l-0.4,0.9l0.9,0.4l0.4-0.9l1.8,0.7c2,0.8,4.3-0.2,5.1-2.2
			c0.6-1.5-0.1-3.2-1.6-3.8c0,0-0.9-0.4-2.7-1.1c-0.1,0-0.2-0.1-0.2-0.1l0.7-0.5l-0.6-0.8l-0.9,0.6c-0.1-0.1-0.2-0.3-0.3-0.4
			l0.8-0.6l-0.6-0.8l-0.8,0.6c-0.1-0.1-0.2-0.3-0.3-0.4L19.3,35.9z M5,31.6c0.1,0.1,0.5,0.7,0.8,1.1c1,1.3,2.4,2.3,4.1,3
			c1.7,0.7,3.4,0.6,4.9-0.1c0.6-0.3,1.5-0.9,1.5-0.9l0,0c0.1,0.1,0.1,0.2,0.2,0.3l-0.7,0.5l0.6,0.8l0.7-0.5c0.1,0.1,0.2,0.3,0.2,0.4
			l-0.7,0.5l0.6,0.8l0.7-0.5c0.1,0.2,0.2,0.3,0.2,0.4c0,0,0,0,0,0.1l-0.6,0.4l0.6,0.8l0.6-0.4c0,0,0,0,0,0.1
			c0.1,0.1,0.2,0.2,0.3,0.4l-0.5,0.4l0.6,0.8l0.6-0.5c0.2,0.2,0.5,0.3,0.7,0.4c0.3,0.1,0.6,0.2,0.8,0.3c-0.1,0.1-0.1,0.1-0.2,0.2
			c-0.4,0.3-0.8,0.4-1.5,0.2l-5-2c-0.6-0.2-1.1-0.1-1.5,0.2c-0.1,0.1-0.2,0.3-0.3,0.4c-1.7-1-2.3-1.2-4-1.9l-5.5-2.2
			c0.3-0.7,0.6-1.4,1-2.1C4.4,32.4,4.7,32,5,31.6z M2.8,36l5.5,2.2c1,0.4,2.3,0.9,4.1,2.1c1.6,1,2.4,1.7,3.7,2.2l6.6,2.6
			c-0.7,0.4-1.6,0.4-2.4,0.1L3,38.2c-0.5-0.2-0.8-0.8-0.5-1.3c0,0,0-0.1,0.1-0.2C2.6,36.5,2.7,36.2,2.8,36L2.8,36z M23.6,44.3
			l-7.1-2.9c-1.1-0.4-1.9-0.9-3-1.7c0,0,0.1-0.1,0.2-0.2c0.1-0.1,0.3-0.1,0.5,0l5,2c1,0.4,1.8,0.2,2.5-0.4c0.1-0.1,0.3-0.3,0.5-0.6
			c0.2,0.1,0.4,0.2,0.8,0.3c0.2,0.1,0.2,0.1,0.2,0.1c1,0.4,1.5,1.6,1.1,2.6C24,43.8,23.8,44.1,23.6,44.3L23.6,44.3z M14.5,33.3
			c0.4,0.2,0.8,0.4,1.1,0.7l-0.2,0.1c0,0-0.7,0.4-1.1,0.6c-1.3,0.5-2.7,0.6-4.1,0c-1.5-0.6-2.7-1.6-3.7-2.7c-0.3-0.4-0.5-0.7-0.7-1
			c0,0-0.2-0.3-0.2-0.3s-0.1,0.1,0.2-0.2C6.1,30.1,6.3,30,6.3,30c0.5,0.2,0.7,0.4,1,1c0.1,0.1,0.1,0.2,0.1,0.2
			c0.6,1.1,1.3,1.8,2.7,2.4c1.4,0.6,2.5,0.5,3.5,0c0.1-0.1,0.5-0.3,0.5-0.2C14.3,33.2,14.3,33.2,14.5,33.3L14.5,33.3z"/>
	</g>
</g>
</svg>
