<?xml version="1.0" encoding="utf-8"?>
<!-- Generator: Adobe Illustrator 22.0.1, SVG Export Plug-In . SVG Version: 6.00 Build 0)  -->
<svg version="1.1" id="Layer_1" xmlns="http://www.w3.org/2000/svg" xmlns:xlink="http://www.w3.org/1999/xlink" x="0px" y="0px"
	 viewBox="0 0 48 48" style="enable-background:new 0 0 48 48;" xml:space="preserve">
<style type="text/css">
	.st0{fill:#753D5D;}
</style>
<g>
	<path class="st0" d="M33.1,18.4c0-5-4.1-9.1-9.1-9.1s-9.1,4.1-9.1,9.1c0,5,4.1,9.1,9.1,9.1S33.1,23.4,33.1,18.4z M17.6,18.4
		c0-3.5,2.9-6.4,6.4-6.4s6.4,2.9,6.4,6.4c0,3.5-2.9,6.4-6.4,6.4S17.6,21.9,17.6,18.4z"/>
	<path class="st0" d="M24,47.3l1-1c0.7-0.7,17-17.8,17-27.4c0-9.9-8.1-18-18-18c-9.9,0-18,8.1-18,18c0,9.6,16.3,26.7,17,27.4
		L24,47.3z M24,3.5c8.4,0,15.3,6.9,15.3,15.3c0,6.6-10.2,19-15.3,24.5C19,37.8,8.7,25.4,8.7,18.8C8.7,10.4,15.6,3.5,24,3.5z"/>
</g>
</svg>
