<?xml version="1.0" encoding="utf-8"?>
<!-- Generator: Adobe Illustrator 22.0.1, SVG Export Plug-In . SVG Version: 6.00 Build 0)  -->
<svg version="1.1" id="Layer_1" xmlns="http://www.w3.org/2000/svg" xmlns:xlink="http://www.w3.org/1999/xlink" x="0px" y="0px"
	 viewBox="0 0 48 48" style="enable-background:new 0 0 48 48;" xml:space="preserve">
<style type="text/css">
	.st0{fill:#753D5D;}
</style>
<g id="Expanded">
	<g>
		<g>
			<path class="st0" d="M24,48C10.8,48,0,37.2,0,24S10.8,0,24,0s24,10.8,24,24S37.2,48,24,48z M24,2C11.9,2,2,11.9,2,24
				s9.9,22,22,22s22-9.9,22-22S36.1,2,24,2z"/>
		</g>
		<g>
			<path class="st0" d="M24,42c-8.8,0-16-7.2-16-16c0-0.6,0.4-1,1-1s1,0.4,1,1c0,7.7,6.3,14,14,14s14-6.3,14-14c0-0.6,0.4-1,1-1
				s1,0.4,1,1C40,34.8,32.8,42,24,42z"/>
		</g>
		<g>
			<path class="st0" d="M19,21c-0.6,0-1-0.4-1-1c0-1.7-1.3-3-3-3s-3,1.3-3,3c0,0.6-0.4,1-1,1s-1-0.4-1-1c0-2.8,2.2-5,5-5s5,2.2,5,5
				C20,20.6,19.6,21,19,21z"/>
		</g>
		<g>
			<path class="st0" d="M37,21c-0.6,0-1-0.4-1-1c0-1.7-1.3-3-3-3s-3,1.3-3,3c0,0.6-0.4,1-1,1s-1-0.4-1-1c0-2.8,2.2-5,5-5s5,2.2,5,5
				C38,20.6,37.6,21,37,21z"/>
		</g>
	</g>
</g>
</svg>
